<svg xmlns="http://www.w3.org/2000/svg" width="67.952" height="68.355" viewBox="0 0 67.952 68.355">
  <path id="U_transparente" data-name="U transparente" d="M2.229,47.027l14.886-3.651,15.9,19.766L27.77,66.723Zm32.7,16.115,15.9-19.766L65.7,47.027,40.181,66.74ZM51.24,42.13V2.212l2.826,1.527L66.249,45.8ZM13.657,3.757l3.054-1.58V42.112L1.7,45.8ZM49.924,0V42.41L33.967,62.229l-15.939-19.8V.035L12.534,2.844.228,46.167,0,46.957l.6.474L27.718,68.355l6.249-4.283,6.249,4.283L67.337,47.431l.614-.474-.228-.79L55.243,3.107l-.07-.263Z" fill="#dbdddd"/>
</svg>
